<svg xmlns="http://www.w3.org/2000/svg" xmlns:xlink="http://www.w3.org/1999/xlink" width="250" zoomAndPan="magnify" viewBox="0 0 187.5 93.749997" height="125" preserveAspectRatio="xMidYMid meet" version="1.0"><defs><g/></defs><g fill="#ff0000" fill-opacity="1"><g transform="translate(11.798578, 57.795616)"><g><path d="M 20.101562 0 L 23.371094 -3.269531 L 23.371094 -10.785156 L 20.101562 -14.054688 L 6.863281 -14.054688 L 6.863281 -17.652344 L 23.371094 -17.652344 L 23.371094 -22.882812 L 4.902344 -22.882812 L 1.632812 -19.613281 L 1.632812 -12.09375 L 4.902344 -8.824219 L 18.140625 -8.824219 L 18.140625 -5.230469 L 1.632812 -5.230469 L 1.632812 0 Z M 20.101562 0 "/></g></g></g><g fill="#ff0000" fill-opacity="1"><g transform="translate(40.295777, 57.795616)"><g><path d="M 23.863281 0 L 23.863281 -5.230469 L 6.863281 -5.230469 L 6.863281 -17.652344 L 19.449219 -17.652344 L 19.449219 -14.382812 L 24.679688 -14.382812 L 24.679688 -19.613281 L 21.410156 -22.882812 L 4.902344 -22.882812 L 1.632812 -19.613281 L 1.632812 -3.269531 L 4.902344 0 Z M 23.863281 0 "/></g></g></g><g fill="#ff0000" fill-opacity="1"><g transform="translate(70.100113, 57.795616)"><g><path d="M 19.941406 -5.558594 L 23.207031 -8.824219 L 23.207031 -19.613281 L 19.941406 -22.882812 L 0.164062 -22.882812 L 0.164062 -17.652344 L 17.976562 -17.652344 L 17.976562 -10.785156 L 7.84375 -10.785156 L 7.84375 -16.015625 L 2.613281 -16.015625 L 2.613281 0 L 7.84375 0 L 7.84375 -5.558594 Z M 19.941406 -5.558594 "/></g></g></g><g fill="#ff0000" fill-opacity="1"><g transform="translate(97.780343, 57.795616)"><g><path d="M 13.074219 -8.824219 L 13.074219 -14.054688 L 1.632812 -14.054688 L 1.632812 -8.824219 Z M 13.074219 -8.824219 "/></g></g></g><g fill="#ff0000" fill-opacity="1"><g transform="translate(115.983798, 57.795616)"><g><path d="M 21.246094 0 L 24.515625 -3.269531 L 24.515625 -8.171875 L 21.246094 -11.441406 L 24.515625 -14.710938 L 24.515625 -19.613281 L 21.246094 -22.882812 L 0.164062 -22.882812 L 0.164062 -17.652344 L 2.613281 -17.652344 L 2.613281 0 Z M 19.285156 -5.230469 L 7.84375 -5.230469 L 7.84375 -8.824219 L 19.285156 -8.824219 Z M 19.285156 -14.054688 L 7.84375 -14.054688 L 7.84375 -17.652344 L 19.285156 -17.652344 Z M 19.285156 -14.054688 "/></g></g></g><g fill="#ff0000" fill-opacity="1"><g transform="translate(145.624751, 57.795616)"><g><path d="M 21.410156 0 L 24.679688 -3.269531 L 24.679688 -14.054688 L 13.890625 -14.054688 L 13.890625 -8.824219 L 19.449219 -8.824219 L 19.449219 -5.230469 L 6.863281 -5.230469 L 6.863281 -17.652344 L 22.226562 -17.652344 L 22.226562 -22.882812 L 4.902344 -22.882812 L 1.632812 -19.613281 L 1.632812 -3.269531 L 4.902344 0 Z M 21.410156 0 "/></g></g></g><g fill="#00ffff" fill-opacity="1"><g transform="translate(15.043472, 57.397194)"><g><path d="M 20.101562 0 L 23.371094 -3.269531 L 23.371094 -10.785156 L 20.101562 -14.054688 L 6.863281 -14.054688 L 6.863281 -17.652344 L 23.371094 -17.652344 L 23.371094 -22.882812 L 4.902344 -22.882812 L 1.632812 -19.613281 L 1.632812 -12.09375 L 4.902344 -8.824219 L 18.140625 -8.824219 L 18.140625 -5.230469 L 1.632812 -5.230469 L 1.632812 0 Z M 20.101562 0 "/></g></g></g><g fill="#00ffff" fill-opacity="1"><g transform="translate(43.54067, 57.397194)"><g><path d="M 23.863281 0 L 23.863281 -5.230469 L 6.863281 -5.230469 L 6.863281 -17.652344 L 19.449219 -17.652344 L 19.449219 -14.382812 L 24.679688 -14.382812 L 24.679688 -19.613281 L 21.410156 -22.882812 L 4.902344 -22.882812 L 1.632812 -19.613281 L 1.632812 -3.269531 L 4.902344 0 Z M 23.863281 0 "/></g></g></g><g fill="#00ffff" fill-opacity="1"><g transform="translate(73.345007, 57.397194)"><g><path d="M 19.941406 -5.558594 L 23.207031 -8.824219 L 23.207031 -19.613281 L 19.941406 -22.882812 L 0.164062 -22.882812 L 0.164062 -17.652344 L 17.976562 -17.652344 L 17.976562 -10.785156 L 7.84375 -10.785156 L 7.84375 -16.015625 L 2.613281 -16.015625 L 2.613281 0 L 7.84375 0 L 7.84375 -5.558594 Z M 19.941406 -5.558594 "/></g></g></g><g fill="#00ffff" fill-opacity="1"><g transform="translate(101.025236, 57.397194)"><g><path d="M 13.074219 -8.824219 L 13.074219 -14.054688 L 1.632812 -14.054688 L 1.632812 -8.824219 Z M 13.074219 -8.824219 "/></g></g></g><g fill="#00ffff" fill-opacity="1"><g transform="translate(119.228692, 57.397194)"><g><path d="M 21.246094 0 L 24.515625 -3.269531 L 24.515625 -8.171875 L 21.246094 -11.441406 L 24.515625 -14.710938 L 24.515625 -19.613281 L 21.246094 -22.882812 L 0.164062 -22.882812 L 0.164062 -17.652344 L 2.613281 -17.652344 L 2.613281 0 Z M 19.285156 -5.230469 L 7.84375 -5.230469 L 7.84375 -8.824219 L 19.285156 -8.824219 Z M 19.285156 -14.054688 L 7.84375 -14.054688 L 7.84375 -17.652344 L 19.285156 -17.652344 Z M 19.285156 -14.054688 "/></g></g></g><g fill="#00ffff" fill-opacity="1"><g transform="translate(148.869644, 57.397194)"><g><path d="M 21.410156 0 L 24.679688 -3.269531 L 24.679688 -14.054688 L 13.890625 -14.054688 L 13.890625 -8.824219 L 19.449219 -8.824219 L 19.449219 -5.230469 L 6.863281 -5.230469 L 6.863281 -17.652344 L 22.226562 -17.652344 L 22.226562 -22.882812 L 4.902344 -22.882812 L 1.632812 -19.613281 L 1.632812 -3.269531 L 4.902344 0 Z M 21.410156 0 "/></g></g></g><g fill="#88ff55" fill-opacity="1"><g transform="translate(13.421025, 57.596405)"><g><path d="M 20.101562 0 L 23.371094 -3.269531 L 23.371094 -10.785156 L 20.101562 -14.054688 L 6.863281 -14.054688 L 6.863281 -17.652344 L 23.371094 -17.652344 L 23.371094 -22.882812 L 4.902344 -22.882812 L 1.632812 -19.613281 L 1.632812 -12.09375 L 4.902344 -8.824219 L 18.140625 -8.824219 L 18.140625 -5.230469 L 1.632812 -5.230469 L 1.632812 0 Z M 20.101562 0 "/></g></g></g><g fill="#88ff55" fill-opacity="1"><g transform="translate(41.918224, 57.596405)"><g><path d="M 23.863281 0 L 23.863281 -5.230469 L 6.863281 -5.230469 L 6.863281 -17.652344 L 19.449219 -17.652344 L 19.449219 -14.382812 L 24.679688 -14.382812 L 24.679688 -19.613281 L 21.410156 -22.882812 L 4.902344 -22.882812 L 1.632812 -19.613281 L 1.632812 -3.269531 L 4.902344 0 Z M 23.863281 0 "/></g></g></g><g fill="#88ff55" fill-opacity="1"><g transform="translate(71.72256, 57.596405)"><g><path d="M 19.941406 -5.558594 L 23.207031 -8.824219 L 23.207031 -19.613281 L 19.941406 -22.882812 L 0.164062 -22.882812 L 0.164062 -17.652344 L 17.976562 -17.652344 L 17.976562 -10.785156 L 7.84375 -10.785156 L 7.84375 -16.015625 L 2.613281 -16.015625 L 2.613281 0 L 7.84375 0 L 7.84375 -5.558594 Z M 19.941406 -5.558594 "/></g></g></g><g fill="#88ff55" fill-opacity="1"><g transform="translate(99.402789, 57.596405)"><g><path d="M 13.074219 -8.824219 L 13.074219 -14.054688 L 1.632812 -14.054688 L 1.632812 -8.824219 Z M 13.074219 -8.824219 "/></g></g></g><g fill="#88ff55" fill-opacity="1"><g transform="translate(117.606245, 57.596405)"><g><path d="M 21.246094 0 L 24.515625 -3.269531 L 24.515625 -8.171875 L 21.246094 -11.441406 L 24.515625 -14.710938 L 24.515625 -19.613281 L 21.246094 -22.882812 L 0.164062 -22.882812 L 0.164062 -17.652344 L 2.613281 -17.652344 L 2.613281 0 Z M 19.285156 -5.230469 L 7.84375 -5.230469 L 7.84375 -8.824219 L 19.285156 -8.824219 Z M 19.285156 -14.054688 L 7.84375 -14.054688 L 7.84375 -17.652344 L 19.285156 -17.652344 Z M 19.285156 -14.054688 "/></g></g></g><g fill="#88ff55" fill-opacity="1"><g transform="translate(147.247197, 57.596405)"><g><path d="M 21.410156 0 L 24.679688 -3.269531 L 24.679688 -14.054688 L 13.890625 -14.054688 L 13.890625 -8.824219 L 19.449219 -8.824219 L 19.449219 -5.230469 L 6.863281 -5.230469 L 6.863281 -17.652344 L 22.226562 -17.652344 L 22.226562 -22.882812 L 4.902344 -22.882812 L 1.632812 -19.613281 L 1.632812 -3.269531 L 4.902344 0 Z M 21.410156 0 "/></g></g></g></svg>