<svg xmlns="http://www.w3.org/2000/svg" xmlns:xlink="http://www.w3.org/1999/xlink" width="40" zoomAndPan="magnify" viewBox="0 0 30 30.000001" height="40" preserveAspectRatio="xMidYMid meet" version="1.0"><defs><g/></defs><g fill="#ff0000" fill-opacity="1"><g transform="translate(2.301838, 17.841223)"><g><path d="M 5.949219 0 L 6.917969 -0.96875 L 6.917969 -3.191406 L 5.949219 -4.160156 L 2.03125 -4.160156 L 2.03125 -5.222656 L 6.917969 -5.222656 L 6.917969 -6.773438 L 1.453125 -6.773438 L 0.484375 -5.804688 L 0.484375 -3.578125 L 1.453125 -2.613281 L 5.371094 -2.613281 L 5.371094 -1.546875 L 0.484375 -1.546875 L 0.484375 0 Z M 5.949219 0 "/></g></g></g><g fill="#ff0000" fill-opacity="1"><g transform="translate(10.737521, 17.841223)"><g><path d="M 7.0625 0 L 7.0625 -1.546875 L 2.03125 -1.546875 L 2.03125 -5.222656 L 5.757812 -5.222656 L 5.757812 -4.257812 L 7.304688 -4.257812 L 7.304688 -5.804688 L 6.335938 -6.773438 L 1.453125 -6.773438 L 0.484375 -5.804688 L 0.484375 -0.96875 L 1.453125 0 Z M 7.0625 0 "/></g></g></g><g fill="#ff0000" fill-opacity="1"><g transform="translate(19.560141, 17.841223)"><g><path d="M 5.902344 -1.644531 L 6.871094 -2.613281 L 6.871094 -5.804688 L 5.902344 -6.773438 L 0.046875 -6.773438 L 0.046875 -5.222656 L 5.320312 -5.222656 L 5.320312 -3.191406 L 2.320312 -3.191406 L 2.320312 -4.742188 L 0.773438 -4.742188 L 0.773438 0 L 2.320312 0 L 2.320312 -1.644531 Z M 5.902344 -1.644531 "/></g></g></g><g fill="#00ffff" fill-opacity="1"><g transform="translate(3.262263, 17.723297)"><g><path d="M 5.949219 0 L 6.917969 -0.96875 L 6.917969 -3.191406 L 5.949219 -4.160156 L 2.03125 -4.160156 L 2.03125 -5.222656 L 6.917969 -5.222656 L 6.917969 -6.773438 L 1.453125 -6.773438 L 0.484375 -5.804688 L 0.484375 -3.578125 L 1.453125 -2.613281 L 5.371094 -2.613281 L 5.371094 -1.546875 L 0.484375 -1.546875 L 0.484375 0 Z M 5.949219 0 "/></g></g></g><g fill="#00ffff" fill-opacity="1"><g transform="translate(11.697947, 17.723297)"><g><path d="M 7.0625 0 L 7.0625 -1.546875 L 2.03125 -1.546875 L 2.03125 -5.222656 L 5.757812 -5.222656 L 5.757812 -4.257812 L 7.304688 -4.257812 L 7.304688 -5.804688 L 6.335938 -6.773438 L 1.453125 -6.773438 L 0.484375 -5.804688 L 0.484375 -0.96875 L 1.453125 0 Z M 7.0625 0 "/></g></g></g><g fill="#00ffff" fill-opacity="1"><g transform="translate(20.520566, 17.723297)"><g><path d="M 5.902344 -1.644531 L 6.871094 -2.613281 L 6.871094 -5.804688 L 5.902344 -6.773438 L 0.046875 -6.773438 L 0.046875 -5.222656 L 5.320312 -5.222656 L 5.320312 -3.191406 L 2.320312 -3.191406 L 2.320312 -4.742188 L 0.773438 -4.742188 L 0.773438 0 L 2.320312 0 L 2.320312 -1.644531 Z M 5.902344 -1.644531 "/></g></g></g><g fill="#88ff55" fill-opacity="1"><g transform="translate(2.78205, 17.78226)"><g><path d="M 5.949219 0 L 6.917969 -0.96875 L 6.917969 -3.191406 L 5.949219 -4.160156 L 2.03125 -4.160156 L 2.03125 -5.222656 L 6.917969 -5.222656 L 6.917969 -6.773438 L 1.453125 -6.773438 L 0.484375 -5.804688 L 0.484375 -3.578125 L 1.453125 -2.613281 L 5.371094 -2.613281 L 5.371094 -1.546875 L 0.484375 -1.546875 L 0.484375 0 Z M 5.949219 0 "/></g></g></g><g fill="#88ff55" fill-opacity="1"><g transform="translate(11.217734, 17.78226)"><g><path d="M 7.0625 0 L 7.0625 -1.546875 L 2.03125 -1.546875 L 2.03125 -5.222656 L 5.757812 -5.222656 L 5.757812 -4.257812 L 7.304688 -4.257812 L 7.304688 -5.804688 L 6.335938 -6.773438 L 1.453125 -6.773438 L 0.484375 -5.804688 L 0.484375 -0.96875 L 1.453125 0 Z M 7.0625 0 "/></g></g></g><g fill="#88ff55" fill-opacity="1"><g transform="translate(20.040353, 17.78226)"><g><path d="M 5.902344 -1.644531 L 6.871094 -2.613281 L 6.871094 -5.804688 L 5.902344 -6.773438 L 0.046875 -6.773438 L 0.046875 -5.222656 L 5.320312 -5.222656 L 5.320312 -3.191406 L 2.320312 -3.191406 L 2.320312 -4.742188 L 0.773438 -4.742188 L 0.773438 0 L 2.320312 0 L 2.320312 -1.644531 Z M 5.902344 -1.644531 "/></g></g></g></svg>